<svg xmlns="http://www.w3.org/2000/svg" width="174" height="21" fill="none"><path d="M162.544 5.535a.23.23 0 0 0-.23.23v2.166c0 .128.103.23.23.23h9.472c.25 0 .452.203.452.453v3.772c0 .25-.202.453-.452.453h-9.472a.23.23 0 0 0-.23.23v2.165c0 .128.103.23.23.23h10.76c.25 0 .452.203.452.453v4.63c0 .25-.202.453-.452.453h-16.658a.46.46 0 0 1-.461-.46V.465a.46.46 0 0 1 .461-.46h16.658c.25 0 .452.202.452.452v4.63c0 .25-.202.453-.452.453h-10.76v-.006ZM153.845 0h-18.869a.453.453 0 0 0-.452.452v4.63c0 .25.203.453.452.453h6.338v15.01c0 .25.203.452.452.452h5.225c.25 0 .452-.202.452-.452V5.535h6.402a.453.453 0 0 0 .452-.452V.453a.453.453 0 0 0-.452-.453Zm-19.599 20.994h-6.989c-.314 0-.611-.141-.811-.385l-5.158-6.352h-1.718a.23.23 0 0 0-.23.23v6.055c0 .25-.203.452-.453.452h-5.216a.46.46 0 0 1-.461-.46V.46a.46.46 0 0 1 .461-.461h14.471a4.322 4.322 0 0 1 4.322 4.322v5.616a4.317 4.317 0 0 1-3.278 4.189l5.252 6.465a.246.246 0 0 1-.192.402ZM119.573 8.997h6.62a.23.23 0 0 0 .231-.23V5.762a.23.23 0 0 0-.231-.23h-6.62a.23.23 0 0 0-.231.23v3.003c0 .128.103.23.231.23Zm-43.233-.81a.23.23 0 0 1-.23-.231V5.33a.23.23 0 0 1 .23-.23h6.957a.23.23 0 0 1 .23.23v.844a.47.47 0 0 0 .47.469h4.752a.47.47 0 0 0 .469-.47v-1.85A4.322 4.322 0 0 0 84.896 0H74.74a4.322 4.322 0 0 0-4.322 4.322v4.15a4.335 4.335 0 0 0 4.336 4.336h8.814a.23.23 0 0 1 .23.23v2.604a.23.23 0 0 1-.23.23H76.34a.23.23 0 0 1-.23-.23v-.832a.47.47 0 0 0-.47-.47h-4.752a.47.47 0 0 0-.469.47v1.868A4.322 4.322 0 0 0 74.741 21h10.382a4.322 4.322 0 0 0 4.322-4.322V12.42a4.23 4.23 0 0 0-4.23-4.231H76.34v-.003Zm34.863-3.865v12.353a4.321 4.321 0 0 1-4.322 4.322H95.85a4.322 4.322 0 0 1-4.322-4.322V4.322A4.322 4.322 0 0 1 95.85 0h11.031a4.321 4.321 0 0 1 4.322 4.322Zm-4.896 6.596a143.21 143.21 0 0 0-3.409-.422c1.088-.125 2.634-.306 3.406-.422 1.16-.172 2.137-1.13 2.043-2.33a1.74 1.74 0 0 0-.539-1.173 2.087 2.087 0 0 0-1.51-.606l-.411.006.006-.41a2.113 2.113 0 0 0-.605-1.51c-.3-.32-.719-.517-1.174-.54-1.2-.094-2.157.883-2.329 2.044-.114.774-.297 2.32-.422 3.409a130.36 130.36 0 0 0-.422-3.407c-.172-1.16-1.13-2.137-2.33-2.043-.455.025-.871.22-1.174.539a2.089 2.089 0 0 0-.605 1.51l.006.41-.411-.005a2.111 2.111 0 0 0-1.51.605c-.32.3-.516.72-.539 1.175-.094 1.199.883 2.157 2.043 2.329.775.114 2.321.297 3.41.422-1.086.124-2.635.305-3.407.422-1.16.172-2.137 1.13-2.043 2.329.025.455.22.871.539 1.174.385.386.932.616 1.51.605l.41-.006-.005.411a2.11 2.11 0 0 0 .605 1.51c.3.32.72.517 1.174.539 1.2.094 2.157-.883 2.329-2.043.114-.775.297-2.32.422-3.41.125 1.09.306 2.635.422 3.407.172 1.16 1.13 2.138 2.329 2.043.456-.025.872-.22 1.175-.538.385-.386.616-.933.605-1.51l-.006-.411.411.005a2.112 2.112 0 0 0 1.51-.605c.319-.3.516-.719.539-1.174.097-1.2-.883-2.157-2.043-2.33Z" fill="#fff"/><path d="M53.045.389 36.66 20.642a.219.219 0 0 0 .17.355h6.937c.3 0 .585-.136.774-.369l2.396-2.962h8.272v2.76a.57.57 0 0 0 .572.571h5.035a.571.571 0 0 0 .572-.572V.495A.495.495 0 0 0 60.893 0h-7.031c-.317 0-.617.144-.817.389Zm-1.873 12.039 3.711-4.589c.108-.133.325-.058.325.114v4.472h-4.036v.003ZM50.622.45l-16.242 20a1.46 1.46 0 0 1-.866.517.498.498 0 0 1-.156.027h-5.232a.483.483 0 0 1-.483-.483V.531c0-.267.216-.484.483-.484h5.23c.266 0 .483.217.483.483v10.185c0 .128.16.186.241.086L42.5.433a1.04 1.04 0 0 1 .81-.386h7.118a.248.248 0 0 1 .194.403ZM25.65.439v20.103c0 .25-.203.452-.453.452h-5.715a.453.453 0 0 1-.453-.452V8.797c0-.364.125-.719.355-1.002L25.42.358c.08-.092.23-.039.23.08Zm-2.673.01L6.734 20.45a1.457 1.457 0 0 1-.866.517.497.497 0 0 1-.155.027H.483A.483.483 0 0 1 0 20.511V.531C0 .263.217.046.483.046h5.23c.266 0 .483.217.483.483v10.185c0 .128.16.186.241.086L14.857.433a1.04 1.04 0 0 1 .81-.386h7.118c.208-.003.322.242.192.403Z" fill="url(#a)"/><path d="M53.045.389 36.66 20.642a.219.219 0 0 0 .17.355h6.937c.3 0 .585-.136.774-.369l2.396-2.962h8.272v2.76a.57.57 0 0 0 .572.571h5.035a.571.571 0 0 0 .572-.572V.495A.495.495 0 0 0 60.893 0h-7.031c-.317 0-.617.144-.817.389Zm-1.873 12.039 3.711-4.589c.108-.133.325-.058.325.114v4.472h-4.036v.003ZM50.622.45l-16.242 20a1.46 1.46 0 0 1-.866.517.498.498 0 0 1-.156.027h-5.232a.483.483 0 0 1-.483-.483V.531c0-.267.216-.484.483-.484h5.23c.266 0 .483.217.483.483v10.185c0 .128.16.186.241.086L42.5.433a1.04 1.04 0 0 1 .81-.386h7.118a.248.248 0 0 1 .194.403ZM25.65.439v20.103c0 .25-.203.452-.453.452h-5.715a.453.453 0 0 1-.453-.452V8.797c0-.364.125-.719.355-1.002L25.42.358c.08-.092.23-.039.23.08Zm-2.673.01L6.734 20.45a1.457 1.457 0 0 1-.866.517.497.497 0 0 1-.155.027H.483A.483.483 0 0 1 0 20.511V.531C0 .263.217.046.483.046h5.23c.266 0 .483.217.483.483v10.185c0 .128.16.186.241.086L14.857.433a1.04 1.04 0 0 1 .81-.386h7.118c.208-.003.322.242.192.403Z" fill="#fff"/><defs><linearGradient id="a" x1="30.693" y1="20.996" x2="30.693" y2="0" gradientUnits="userSpaceOnUse"><stop stop-color="#3444AE"/><stop offset="1" stop-color="#00ADF6"/></linearGradient></defs></svg>